<svg width="48" height="48" viewBox="0 0 48 48" fill="none" xmlns="http://www.w3.org/2000/svg">
<path fill-rule="evenodd" clip-rule="evenodd" d="M3.33936 11.7804C1.21787 15.3597 0 19.5376 0 24C0 35.5402 8.14505 45.1781 19 47.4784V28.4011C11.0163 26.4512 4.82212 19.9369 3.33936 11.7804ZM29 47.4784C39.855 45.1781 48 35.5402 48 24C48 19.5376 46.7821 15.3597 44.6606 11.7804C43.1779 19.9369 36.9837 26.4512 29 28.4011V47.4784ZM35 2.66363C31.7048 0.96134 27.9647 0 24 0C20.0353 0 16.2952 0.96134 13 2.66363V8C13 14.0751 17.9249 19 24 19C30.0751 19 35 14.0751 35 8V2.66363Z" fill="#ECF39E"/>
</svg>
